<svg width="54" height="54" viewBox="0 0 54 54" fill="none" xmlns="http://www.w3.org/2000/svg">
<path d="M0 8.11159C0 3.63168 3.63168 0 8.11159 0H45.8884C50.3683 0 54 3.63168 54 8.11159V45.8884C54 50.3683 50.3683 54 45.8884 54H8.11159C3.63168 54 0 50.3683 0 45.8884V8.11159Z" fill="#002F3E"/>
<path d="M23.5155 34.1218C17.6369 35.5619 13.3637 37.137 9 43.82C11.3514 31.1966 20.8928 29.6124 26.9522 28.9914C30.9089 28.5859 36.7875 28.0238 40.4729 25.2111C36.1318 32.6817 27.4044 33.1691 23.5155 34.1218Z" fill="#70C8B4"/>
<path d="M23.5155 34.1218C17.6369 35.5619 13.3637 37.137 9 43.82C11.3514 31.1966 20.8928 29.6124 26.9522 28.9914C30.9089 28.5859 36.7875 28.0238 40.4729 25.2111C36.1318 32.6817 27.4044 33.1691 23.5155 34.1218Z" fill="url(#paint0_linear)"/>
<path d="M23.5155 34.1218C17.6369 35.5619 13.3637 37.137 9 43.82C11.4645 33.4917 20.4858 31.0975 26.5452 30.4765C28.1957 30.3073 35.6117 29.5314 39.5006 26.5837C35.0239 32.7042 27.4044 33.1691 23.5155 34.1218Z" fill="url(#paint1_linear)"/>
<path d="M17.117 44H11.8489C11.8489 44 12.9298 40.5572 13.6803 39.6797C16.0769 36.8771 20.011 36.1244 20.011 36.1244L17.117 44Z" fill="url(#paint2_linear)"/>
<path d="M42.5077 43.9325H37.0814L33.0116 32.7267C34.7526 32.0516 35.9283 31.5566 37.4883 30.409L42.5077 43.9325Z" fill="url(#paint3_linear)"/>
<path d="M19.4457 23.9511L24.7816 10.0226L27.2461 16.7505L25.3468 21.7909C21.5258 22.331 19.4457 23.9511 19.4457 23.9511Z" fill="url(#paint4_linear)"/>
<path d="M33.8934 21.1833L28.8288 21.4758C26.9295 16.863 24.7816 10 24.7816 10H29.5749L33.8934 21.1833Z" fill="url(#paint5_linear)"/>
<path d="M25.5503 28.1363C22.1589 28.4839 15.1498 29.8465 12.1201 33.5367C18.6317 22.3759 23.719 22.8395 29.7784 22.2184C33.7351 21.8129 38.9354 21.8359 44 19.2032C36.7196 28.1813 31.4172 27.535 25.5503 28.1363Z" fill="#67C5B0"/>
<path d="M25.5503 28.1363C22.1589 28.4839 15.1498 29.8465 12.1201 33.5367C18.6317 22.3759 23.719 22.8395 29.7784 22.2184C33.7351 21.8129 38.9354 21.8359 44 19.2032C36.7196 28.1813 31.4172 27.535 25.5503 28.1363Z" fill="url(#paint6_linear)"/>
<path d="M25.5503 28.1363C21.8649 28.5189 15.1498 29.869 12.1201 33.5592C17.6595 25.2111 23.2894 25.7037 28.5348 25.1661C32.8307 24.7611 36.9231 24.5361 40.4276 23.006C35.2273 27.6863 31.2932 27.5825 25.5503 28.1363Z" fill="url(#paint7_linear)"/>
<defs>
<linearGradient id="paint0_linear" x1="22.8824" y1="25.2111" x2="24.72" y2="31.9211" gradientUnits="userSpaceOnUse">
<stop stop-color="white"/>
<stop offset="0.866322" stop-color="white" stop-opacity="0"/>
</linearGradient>
<linearGradient id="paint1_linear" x1="39.5232" y1="28.3613" x2="10.043" y2="45.4274" gradientUnits="userSpaceOnUse">
<stop offset="0.622726" stop-color="#399689"/>
<stop offset="0.908257" stop-color="#66C5B0" stop-opacity="0.05"/>
</linearGradient>
<linearGradient id="paint2_linear" x1="20.0336" y1="36.1469" x2="12.0903" y2="44.0606" gradientUnits="userSpaceOnUse">
<stop offset="0.254175" stop-color="#45A091"/>
<stop offset="0.825916" stop-color="#66C5B0"/>
</linearGradient>
<linearGradient id="paint3_linear" x1="39.0936" y1="30.4315" x2="39.3624" y2="43.9325" gradientUnits="userSpaceOnUse">
<stop offset="0.118337" stop-color="#3C9B8D"/>
<stop offset="0.484622" stop-color="#66C5B0"/>
</linearGradient>
<linearGradient id="paint4_linear" x1="20.1918" y1="22.2635" x2="27.9466" y2="21.6955" gradientUnits="userSpaceOnUse">
<stop stop-color="#66C5B0"/>
<stop offset="0.665904" stop-color="#66C5B0"/>
<stop offset="0.708537" stop-color="#56B4A2"/>
<stop offset="0.9763" stop-color="#45A293"/>
</linearGradient>
<linearGradient id="paint5_linear" x1="24.7816" y1="10" x2="32.17" y2="21.5081" gradientUnits="userSpaceOnUse">
<stop offset="0.078577" stop-color="#B4E1D5"/>
<stop offset="0.258615" stop-color="#A2D8CA"/>
<stop offset="1" stop-color="#66C5B0"/>
</linearGradient>
<linearGradient id="paint6_linear" x1="28.3992" y1="20.2383" x2="29.1832" y2="24.3125" gradientUnits="userSpaceOnUse">
<stop offset="0.433086" stop-color="white" stop-opacity="0.5"/>
<stop offset="1" stop-color="white" stop-opacity="0"/>
</linearGradient>
<linearGradient id="paint7_linear" x1="40.4276" y1="23.0059" x2="12.1497" y2="32.9235" gradientUnits="userSpaceOnUse">
<stop offset="0.0989148" stop-color="#39968A"/>
<stop offset="0.618056" stop-color="#3A998C"/>
<stop offset="0.929394" stop-color="#63C2AD" stop-opacity="0.3"/>
</linearGradient>
</defs>
</svg>
